# xmcd
#
# Track frame offsets: 
#        150
#        15100
#        28435
#        45640
#        65480
#        79847
#        97165
#        111875
#        126785
#        139965
#        154715
#        169322
#        187130
#        206400
#
# Disc length: 2955 seconds
#
# Revision: 0
# Processed by: cddbd v1.5.1PL0 Copyright (c) Steve Scherf et al.
# Submitted via: ExactAudioCopy v0.95a5
#
DISCID=c60b890e
DTITLE=Real Group - Allt det basta
DYEAR=2004
DGENRE=A Cappella
TTITLE0=Chili Con Carne
TTITLE1=Substitute For Life
TTITLE2=Dancing Queen
TTITLE3=Li'l Darlin'
TTITLE4=Flight Of The Foo-Birds
TTITLE5=Commonly Unique
TTITLE6=Kristallen Den Fina
TTITLE7=Alla Talar Med Varandra
TTITLE8=Acappella I Acapulco
TTITLE9=Att Angora En Brygga
TTITLE10=Varfor Far Man Inte Bara Vara Som Man Ar
TTITLE11=Cage Of Promises
TTITLE12=En Sommar
TTITLE13=Man E Man
EXTD=
EXTT0=
EXTT1=
EXTT2=
EXTT3=
EXTT4=
EXTT5=
EXTT6=
EXTT7=
EXTT8=
EXTT9=
EXTT10=
EXTT11=
EXTT12=
EXTT13=
PLAYORDER=
